<?xml version="1.0" encoding="utf-8"?>
<!-- Generator: Adobe Illustrator 22.0.0, SVG Export Plug-In . SVG Version: 6.00 Build 0)  -->
<svg version="1.1" id="Layer_1" xmlns="http://www.w3.org/2000/svg" xmlns:xlink="http://www.w3.org/1999/xlink" x="0px" y="0px"
	 viewBox="0 0 512 512" style="enable-background:new 0 0 512 512;" xml:space="preserve">
<style type="text/css">
	.st0{fill:#E3E3E3;}
</style>
<path class="st0" d="M284.3,245.1l110.9-110.9c7.8-7.8,7.8-20.5,0-28.3s-20.5-7.8-28.3,0L256,216.8L145.1,105.9
	c-7.8-7.8-20.5-7.8-28.3,0s-7.8,20.5,0,28.3l110.9,110.9L116.9,355.9c-7.8,7.8-7.8,20.5,0,28.3c3.9,3.9,9,5.9,14.1,5.9
	c5.1,0,10.2-2,14.1-5.9L256,273.3l110.9,110.9c3.9,3.9,9,5.9,14.1,5.9s10.2-2,14.1-5.9c7.8-7.8,7.8-20.5,0-28.3L284.3,245.1z"/>
</svg>
