<?xml version="1.0" encoding="utf-8"?>
<!-- Generator: Adobe Illustrator 22.0.0, SVG Export Plug-In . SVG Version: 6.00 Build 0)  -->
<svg version="1.1" id="Capa_1" xmlns="http://www.w3.org/2000/svg" xmlns:xlink="http://www.w3.org/1999/xlink" x="0px" y="0px"
	 viewBox="0 0 612 612" style="enable-background:new 0 0 612 612;" xml:space="preserve">
<style type="text/css">
	.st0{fill:#E3E3E3;}
</style>
<g>
	<g id="_x35__21_">
		<g>
			<path class="st0" d="M535.5,0h-459C34.5,0,0,37.7,0,79.7V536c0,42,34,76,76,76h456c42,0,80-34.5,80-76.5v-459
				C612,34.5,577.5,0,535.5,0z M573.8,535.5c0,21-20.8,38.5-41.8,38.5H76c-21,0-38-17-38-38V79.7c0-21,17.5-41.4,38.5-41.4h459
				c21,0,38.2,17.3,38.2,38.2L573.8,535.5L573.8,535.5z M459,382.5H153c-10.6,0-19.1,8.6-19.1,19.1s8.6,19.1,19.1,19.1h306
				c10.6,0,19.1-8.6,19.1-19.1S469.6,382.5,459,382.5z M459,267.8H153c-10.6,0-19.1,8.6-19.1,19.1S142.4,306,153,306h306
				c10.6,0,19.1-8.6,19.1-19.1S469.6,267.8,459,267.8z M459,153H153c-10.6,0-19.1,8.6-19.1,19.1s8.6,19.1,19.1,19.1h306
				c10.6,0,19.1-8.6,19.1-19.1S469.6,153,459,153z"/>
		</g>
	</g>
</g>
</svg>
